<svg width="42" height="41" viewBox="0 0 42 41" fill="none" xmlns="http://www.w3.org/2000/svg">
<path d="M20.8522 0.98197C15.3819 1.03378 10.1552 3.13783 6.32179 6.83126C2.48838 10.5247 0.362316 15.5049 0.411293 20.6764C0.46027 25.8479 2.68028 30.787 6.58295 34.4072C10.4856 38.0273 15.7513 40.032 21.2215 39.9802L20.8522 0.98197Z" fill="#4544DC"/>
<path d="M31.5347 39.8822C37.2302 39.8282 41.8061 35.4195 41.7551 30.0349C41.7041 24.6504 37.0456 20.3291 31.35 20.383C25.6544 20.437 21.0786 24.8457 21.1296 30.2303C21.1806 35.6148 25.8391 39.9361 31.5347 39.8822Z" fill="url(#paint0_linear_116_15)"/>
<defs>
<linearGradient id="paint0_linear_116_15" x1="41.7551" y1="30.0349" x2="21.1296" y2="30.2303" gradientUnits="userSpaceOnUse">
<stop stop-color="#FFAB6B"/>
<stop offset="1" stop-color="#4544DC"/>
</linearGradient>
</defs>
</svg>
